<svg xmlns="http://www.w3.org/2000/svg" width="1920" height="1080" viewBox="0 0 1920 1080" preserveAspectRatio="xMidYMid slice">
<defs><linearGradient id="sky" x1="0" y1="0" x2="0" y2="1"><stop offset="0" stop-color="#1d2b3a"/><stop offset="0.55" stop-color="#3f5a72"/><stop offset="1" stop-color="#9fb6c6"/></linearGradient><radialGradient id="glow" cx="1450" cy="240" r="1100" gradientUnits="userSpaceOnUse"><stop offset="0" stop-color="#dfeefc"/><stop offset="1" stop-color="transparent"/></radialGradient><linearGradient id="ground" x1="0" y1="0" x2="0" y2="1"><stop offset="0" stop-color="#cfdae6"/><stop offset="1" stop-color="#aebccb"/></linearGradient></defs>
<rect width="1920" height="1080" fill="url(#sky)"/><rect width="1920" height="1080" fill="url(#glow)"/><polygon points="0,780 520,420 1040,780" fill="#8aa0b4" opacity="0.6"/><polygon points="760,780 1280,360 1920,780" fill="#7891a8" opacity="0.6"/><circle cx="663" cy="154" r="4" fill="#fff" opacity="0.55"/><circle cx="1333" cy="49" r="2" fill="#fff" opacity="0.55"/><circle cx="1681" cy="548" r="2" fill="#fff" opacity="0.55"/><circle cx="748" cy="596" r="2" fill="#fff" opacity="0.55"/><circle cx="1863" cy="519" r="3" fill="#fff" opacity="0.55"/><circle cx="76" cy="88" r="4" fill="#fff" opacity="0.55"/><circle cx="856" cy="71" r="3" fill="#fff" opacity="0.55"/><circle cx="185" cy="564" r="4" fill="#fff" opacity="0.55"/><circle cx="121" cy="579" r="2" fill="#fff" opacity="0.55"/><circle cx="457" cy="645" r="2" fill="#fff" opacity="0.55"/><circle cx="1181" cy="599" r="4" fill="#fff" opacity="0.55"/><circle cx="101" cy="226" r="2" fill="#fff" opacity="0.55"/><circle cx="1140" cy="136" r="3" fill="#fff" opacity="0.55"/><circle cx="858" cy="147" r="2" fill="#fff" opacity="0.55"/><circle cx="1169" cy="315" r="3" fill="#fff" opacity="0.55"/><circle cx="211" cy="595" r="3" fill="#fff" opacity="0.55"/><circle cx="762" cy="99" r="2" fill="#fff" opacity="0.55"/><circle cx="1155" cy="61" r="3" fill="#fff" opacity="0.55"/><circle cx="1016" cy="696" r="4" fill="#fff" opacity="0.55"/><circle cx="1591" cy="321" r="4" fill="#fff" opacity="0.55"/><circle cx="1199" cy="464" r="3" fill="#fff" opacity="0.55"/><circle cx="613" cy="254" r="3" fill="#fff" opacity="0.55"/><circle cx="1431" cy="798" r="3" fill="#fff" opacity="0.55"/><circle cx="167" cy="588" r="3" fill="#fff" opacity="0.55"/><circle cx="1075" cy="506" r="3" fill="#fff" opacity="0.55"/><circle cx="1493" cy="459" r="3" fill="#fff" opacity="0.55"/><circle cx="1247" cy="74" r="2" fill="#fff" opacity="0.55"/><circle cx="1048" cy="428" r="3" fill="#fff" opacity="0.55"/><circle cx="1550" cy="350" r="3" fill="#fff" opacity="0.55"/><circle cx="1911" cy="500" r="4" fill="#fff" opacity="0.55"/><circle cx="80" cy="684" r="2" fill="#fff" opacity="0.55"/><circle cx="1565" cy="571" r="3" fill="#fff" opacity="0.55"/><circle cx="696" cy="711" r="3" fill="#fff" opacity="0.55"/><circle cx="1217" cy="508" r="4" fill="#fff" opacity="0.55"/><circle cx="140" cy="95" r="3" fill="#fff" opacity="0.55"/><circle cx="970" cy="713" r="2" fill="#fff" opacity="0.55"/><circle cx="124" cy="748" r="3" fill="#fff" opacity="0.55"/><circle cx="1325" cy="591" r="4" fill="#fff" opacity="0.55"/><circle cx="582" cy="733" r="4" fill="#fff" opacity="0.55"/><circle cx="1816" cy="684" r="3" fill="#fff" opacity="0.55"/><circle cx="46" cy="472" r="3" fill="#fff" opacity="0.55"/><circle cx="344" cy="625" r="2" fill="#fff" opacity="0.55"/><circle cx="1011" cy="60" r="3" fill="#fff" opacity="0.55"/><circle cx="1573" cy="294" r="3" fill="#fff" opacity="0.55"/><circle cx="1512" cy="253" r="4" fill="#fff" opacity="0.55"/><circle cx="800" cy="508" r="2" fill="#fff" opacity="0.55"/><circle cx="340" cy="459" r="4" fill="#fff" opacity="0.55"/><circle cx="1125" cy="284" r="3" fill="#fff" opacity="0.55"/><circle cx="1677" cy="440" r="3" fill="#fff" opacity="0.55"/><circle cx="1446" cy="425" r="3" fill="#fff" opacity="0.55"/><circle cx="1398" cy="389" r="3" fill="#fff" opacity="0.55"/><circle cx="309" cy="84" r="3" fill="#fff" opacity="0.55"/><circle cx="309" cy="237" r="3" fill="#fff" opacity="0.55"/><circle cx="24" cy="496" r="3" fill="#fff" opacity="0.55"/><circle cx="538" cy="288" r="2" fill="#fff" opacity="0.55"/><circle cx="298" cy="429" r="3" fill="#fff" opacity="0.55"/><circle cx="1248" cy="579" r="3" fill="#fff" opacity="0.55"/><circle cx="257" cy="707" r="2" fill="#fff" opacity="0.55"/><circle cx="935" cy="798" r="4" fill="#fff" opacity="0.55"/><circle cx="815" cy="408" r="4" fill="#fff" opacity="0.55"/><circle cx="212" cy="493" r="4" fill="#fff" opacity="0.55"/><circle cx="127" cy="195" r="2" fill="#fff" opacity="0.55"/><circle cx="427" cy="451" r="3" fill="#fff" opacity="0.55"/><circle cx="225" cy="348" r="2" fill="#fff" opacity="0.55"/><circle cx="209" cy="0" r="3" fill="#fff" opacity="0.55"/><circle cx="1098" cy="103" r="3" fill="#fff" opacity="0.55"/><circle cx="1256" cy="26" r="2" fill="#fff" opacity="0.55"/><circle cx="1790" cy="212" r="4" fill="#fff" opacity="0.55"/><circle cx="304" cy="649" r="3" fill="#fff" opacity="0.55"/><circle cx="711" cy="616" r="3" fill="#fff" opacity="0.55"/><circle cx="971" cy="125" r="2" fill="#fff" opacity="0.55"/><circle cx="1738" cy="499" r="4" fill="#fff" opacity="0.55"/><circle cx="983" cy="495" r="3" fill="#fff" opacity="0.55"/><circle cx="175" cy="147" r="2" fill="#fff" opacity="0.55"/><circle cx="1535" cy="350" r="3" fill="#fff" opacity="0.55"/><circle cx="980" cy="708" r="3" fill="#fff" opacity="0.55"/><circle cx="1057" cy="23" r="3" fill="#fff" opacity="0.55"/><circle cx="1081" cy="370" r="3" fill="#fff" opacity="0.55"/><circle cx="1413" cy="556" r="2" fill="#fff" opacity="0.55"/><circle cx="1552" cy="540" r="3" fill="#fff" opacity="0.55"/><circle cx="1316" cy="93" r="3" fill="#fff" opacity="0.55"/><circle cx="1061" cy="375" r="3" fill="#fff" opacity="0.55"/><circle cx="728" cy="790" r="3" fill="#fff" opacity="0.55"/><circle cx="1090" cy="554" r="3" fill="#fff" opacity="0.55"/><circle cx="1303" cy="228" r="3" fill="#fff" opacity="0.55"/><circle cx="1650" cy="245" r="4" fill="#fff" opacity="0.55"/><circle cx="1515" cy="232" r="3" fill="#fff" opacity="0.55"/><circle cx="1060" cy="504" r="3" fill="#fff" opacity="0.55"/><circle cx="1497" cy="29" r="2" fill="#fff" opacity="0.55"/><circle cx="1618" cy="286" r="4" fill="#fff" opacity="0.55"/><rect y="777" width="1920" height="302" fill="url(#ground)"/>
</svg>
